<svg xmlns="http://www.w3.org/2000/svg" width="115.467" height="139.909" viewBox="0 0 115.467 139.909"><defs><style>.a{fill:#00e7ff;}.b{fill:#602f75;}.c{fill:#fff;}.d{fill:#eaeaea;}.e{fill:#ea3457;}.f{fill:#ffe600;}</style></defs><g transform="translate(-36 -1111.896)"><g transform="translate(33.177 1122.886) rotate(-16)"><rect class="a" width="15.82" height="87.888" transform="translate(1.758 11.998)"/><path class="b" d="M17.578,101.643H1.758A1.757,1.757,0,0,1,0,99.886V12A1.757,1.757,0,0,1,1.758,10.24h15.82A1.757,1.757,0,0,1,19.335,12V99.886A1.758,1.758,0,0,1,17.578,101.643ZM3.515,98.128h12.3V13.755H3.515Z"/><path class="c" d="M124.515,44.312v69.431H68.267V17.067h50.76a5.489,5.489,0,0,1,5.489,5.489" transform="translate(-50.689 -5.069)"/><path class="b" d="M119.446,110.432H63.2a1.757,1.757,0,0,1-1.758-1.758V12A1.757,1.757,0,0,1,63.2,10.24h50.76a7.255,7.255,0,0,1,7.246,7.246,1.758,1.758,0,1,1-3.516,0,3.735,3.735,0,0,0-3.731-3.73h-49v93.161h52.733V39.243a1.758,1.758,0,1,1,3.516,0v69.431A1.757,1.757,0,0,1,119.446,110.432Z" transform="translate(-45.62)"/><path class="d" d="M14.737,331.093H78.895v15.82H14.737A7.91,7.91,0,0,1,6.827,339h0A7.91,7.91,0,0,1,14.737,331.093Z" transform="translate(-5.069 -238.239)"/><path class="b" d="M73.826,343.6H9.668a9.668,9.668,0,0,1,0-19.336H73.826a1.757,1.757,0,0,1,1.758,1.758v15.82A1.757,1.757,0,0,1,73.826,343.6ZM9.668,327.782a6.152,6.152,0,0,0,0,12.3h62.4v-12.3Z" transform="translate(0 -233.169)"/><g transform="translate(24.609 50.668)"><path class="a" d="M170.871,273.169H165.6a1.758,1.758,0,0,1,0-3.516h5.273a1.758,1.758,0,1,1,0,3.516Z" transform="translate(-146.262 -243.287)"/><path class="a" d="M111.393,204.9H97.331a1.758,1.758,0,0,1,0-3.516h14.062a1.758,1.758,0,1,1,0,3.516Z" transform="translate(-95.573 -192.597)"/><path class="a" d="M128.153,170.769h-3.515a1.758,1.758,0,0,1,0-3.516h3.515a1.758,1.758,0,1,1,0,3.516Z" transform="translate(-115.849 -167.253)"/></g><path class="c" d="M225.361,99.978c0-11.858-13.772-21.471-30.761-21.471S163.84,88.12,163.84,99.978,177.612,110.2,194.6,110.2,225.361,111.835,225.361,99.978Z" transform="translate(-121.654 -50.689)"/><path class="b" d="M200.056,106.967c-1.608,0-3.28-.019-5.01-.038-3.577-.038-7.452-.038-11.029,0-10.965.119-19.632.214-24.111-4.216a10.527,10.527,0,0,1-2.893-7.805c0-12.809,14.587-23.228,32.518-23.228S222.05,82.1,222.05,94.908a10.527,10.527,0,0,1-2.893,7.805C215.384,106.445,208.642,106.967,200.056,106.967Zm-10.524-3.593c1.9,0,3.752.021,5.553.04,9.749.113,18.164.2,21.6-3.2a7.076,7.076,0,0,0,1.851-5.306c0-10.869-13.01-19.713-29-19.713s-29,8.844-29,19.713a7.076,7.076,0,0,0,1.851,5.306c3.436,3.4,11.854,3.311,21.6,3.2C185.78,103.395,187.636,103.374,189.532,103.374Z" transform="translate(-116.585 -45.619)"/><circle class="e" cx="7.668" cy="7.668" r="7.668" transform="translate(79.341 38.043)"/><path class="b" d="M310.74,130.239a9.425,9.425,0,1,1,9.425-9.425A9.436,9.436,0,0,1,310.74,130.239Zm0-15.335a5.91,5.91,0,1,0,5.91,5.91A5.917,5.917,0,0,0,310.74,114.9Z" transform="translate(-223.731 -75.104)"/><circle class="e" cx="7.668" cy="7.668" r="7.668" transform="translate(51.217 38.043)"/><path class="b" d="M201.512,130.239a9.425,9.425,0,1,1,9.425-9.425A9.436,9.436,0,0,1,201.512,130.239Zm0-15.335a5.91,5.91,0,1,0,5.91,5.91A5.917,5.917,0,0,0,201.512,114.9Z" transform="translate(-142.628 -75.104)"/><path class="e" d="M253.668,79.181a7.668,7.668,0,1,0,15.055,0,42.332,42.332,0,0,0-15.055,0Z" transform="translate(-188.248 -50.689)"/><path class="b" d="M256.126,84.944A9.365,9.365,0,0,1,246.871,73.8a1.759,1.759,0,0,1,1.425-1.413,44.3,44.3,0,0,1,15.662,0,1.758,1.758,0,0,1,1.425,1.413,9.365,9.365,0,0,1-9.256,11.142Zm-5.909-9.3a5.911,5.911,0,0,0,11.819,0A40.347,40.347,0,0,0,250.217,75.642Z" transform="translate(-183.18 -45.629)"/><rect class="f" width="29.882" height="19.335" transform="translate(58.006 59.457)"/><g transform="translate(56.248 57.699)"><path class="b" d="M250.093,217.411H220.211a1.757,1.757,0,0,1-1.758-1.758V196.318a1.757,1.757,0,0,1,1.758-1.758h29.882a1.757,1.757,0,0,1,1.758,1.758v19.335A1.757,1.757,0,0,1,250.093,217.411ZM221.969,213.9h26.366v-15.82H221.969Z" transform="translate(-218.453 -194.56)"/><path class="b" d="M308.958,230.655A1.757,1.757,0,0,1,307.2,228.9v-5.273a1.758,1.758,0,0,1,3.516,0V228.9A1.758,1.758,0,0,1,308.958,230.655Z" transform="translate(-284.349 -214.835)"/><path class="b" d="M247.518,230.655a1.757,1.757,0,0,1-1.758-1.758v-5.273a1.758,1.758,0,1,1,3.516,0V228.9A1.758,1.758,0,0,1,247.518,230.655Z" transform="translate(-238.729 -214.835)"/></g></g><g transform="translate(36 1156.147)"><path class="c" d="M33.524,194.56h7.455a8.426,8.426,0,0,1,8.289,8.557h0a8.426,8.426,0,0,1-8.289,8.557H15.115a8.426,8.426,0,0,1-8.289-8.557h0a8.426,8.426,0,0,1,8.289-8.557H28.047" transform="translate(-6.142 -116.7)"/><path class="b" d="M34.837,206.215H8.974a9.245,9.245,0,0,1,0-18.483H21.906a.685.685,0,1,1,0,1.369H8.974a7.877,7.877,0,0,0,0,15.745H34.837a7.877,7.877,0,0,0,0-15.745H27.382a.685.685,0,0,1,0-1.369h7.455a9.246,9.246,0,0,1,0,18.483Z" transform="translate(0 -110.557)"/><g transform="translate(1.369 81.967)"><path class="f" d="M52.429,249.876H28.235c-4.283,0-7.755-1.686-7.755-3.765h0c0-2.079,3.472-3.765,7.755-3.765H52.429c4.283,0,7.755,1.686,7.755,3.765h0C60.184,248.19,56.712,249.876,52.429,249.876Z" transform="translate(-19.795 -241.662)"/><path class="f" d="M46.287,244.419H22.092c-4.732,0-8.439-1.955-8.439-4.45s3.707-4.45,8.439-4.45H46.287c4.732,0,8.439,1.955,8.439,4.45S51.019,244.419,46.287,244.419Zm-24.195-7.53c-4.166,0-7.07,1.623-7.07,3.081s2.9,3.081,7.07,3.081H46.287c4.167,0,7.07-1.623,7.07-3.081s-2.9-3.081-7.07-3.081Z" transform="translate(-13.653 -235.52)"/></g><path class="e" d="M44.4,232.8H40.294v-4.107H38.24V232.8H34.133v2.054H38.24v4.107h2.054v-4.107H44.4Z" transform="translate(-30.71 -147.411)"/><path class="b" d="M34.152,233.5H32.1a.684.684,0,0,1-.685-.685V229.4H27.991a.684.684,0,0,1-.685-.685v-2.054a.684.684,0,0,1,.685-.685h3.423v-3.423a.684.684,0,0,1,.685-.685h2.054a.684.684,0,0,1,.685.685v3.423h3.423a.684.684,0,0,1,.685.685v2.054a.684.684,0,0,1-.685.685H34.836v3.423A.684.684,0,0,1,34.152,233.5Zm-1.369-1.369h.685v-3.423a.684.684,0,0,1,.685-.685h3.423v-.685H34.152a.684.684,0,0,1-.685-.685v-3.423h-.684v3.423a.684.684,0,0,1-.685.685H28.675v.685H32.1a.684.684,0,0,1,.685.685Z" transform="translate(-24.568 -141.268)"/><rect class="a" width="2.054" height="3.423" transform="translate(33.543 81.282)"/><path class="b" d="M330.418,226.658h-2.054a.684.684,0,0,1-.685-.685v-3.423a.684.684,0,0,1,.685-.685h2.054a.684.684,0,0,1,.685.685v3.423A.684.684,0,0,1,330.418,226.658Zm-1.369-1.369h.685v-2.054h-.685Z" transform="translate(-294.821 -141.268)"/><rect class="a" width="2.054" height="3.423" transform="translate(33.543 88.128)"/><path class="b" d="M330.418,294.925h-2.054a.684.684,0,0,1-.685-.685v-3.423a.684.684,0,0,1,.685-.685h2.054a.684.684,0,0,1,.685.685v3.423A.684.684,0,0,1,330.418,294.925Zm-1.369-1.369h.685V291.5h-.685Z" transform="translate(-294.821 -202.69)"/><rect class="a" width="3.423" height="2.054" transform="translate(29.436 85.39)"/><path class="b" d="M290.827,266.249H287.4a.684.684,0,0,1-.685-.685v-2.054a.684.684,0,0,1,.685-.685h3.423a.684.684,0,0,1,.685.685v2.054A.684.684,0,0,1,290.827,266.249Zm-2.738-1.369h2.054V264.2h-2.054Z" transform="translate(-257.969 -178.121)"/><rect class="a" width="3.423" height="2.054" transform="translate(36.281 85.39)"/><g transform="translate(21.221 64.853)"><path class="b" d="M359.094,266.249h-3.423a.684.684,0,0,1-.685-.685v-2.054a.684.684,0,0,1,.685-.685h3.423a.684.684,0,0,1,.685.685v2.054A.684.684,0,0,1,359.094,266.249Zm-2.738-1.369h2.054V264.2h-2.054Z" transform="translate(-340.611 -242.974)"/><path class="b" d="M212.311,77.86a.684.684,0,0,1-.685-.685V69.3a4.453,4.453,0,0,1,4.449-4.448h2.55c.378,0,.423.442.423.82s.8,1.268.423,1.268l-3.4-.719A3.083,3.083,0,0,0,213,69.3v7.874A.684.684,0,0,1,212.311,77.86Z" transform="translate(-211.626 -64.853)"/></g></g></g></svg>