<svg xmlns="http://www.w3.org/2000/svg" width="122.599" height="124.457" viewBox="0 0 122.599 124.457"><defs><style>.a{fill:#fff;}.b{fill:#602f75;}.c{fill:#ea3457;}.d{fill:#00e7ff;}.e{fill:#ffe600;}</style></defs><g transform="translate(34.066 -30.936) rotate(25)"><path class="a" d="M47.891,83.992H28.342A21.515,21.515,0,0,1,6.827,62.476h0A21.515,21.515,0,0,1,28.342,40.961H95.471a21.515,21.515,0,0,1,21.515,21.515h0A21.515,21.515,0,0,1,95.471,83.992H67.07" transform="translate(-5.106 -5.106)"/><path class="b" d="M90.365,80.607h-28.4a1.721,1.721,0,0,1,0-3.443h28.4a19.794,19.794,0,1,0,0-39.588H23.237a19.794,19.794,0,1,0,0,39.588H42.786a1.721,1.721,0,1,1,0,3.443H23.237a23.237,23.237,0,0,1,0-46.473H90.365a23.237,23.237,0,1,1,0,46.473Z" transform="translate(0 0)"/><g transform="translate(8.606 42.74)"><path class="c" d="M66.779,85.42H56.451V75.093H51.287V85.42H40.96v5.164H51.287v10.327h5.164V90.584H66.779Z" transform="translate(-39.239 -73.372)"/><path class="c" d="M51.345,97.527H46.182a1.721,1.721,0,0,1-1.721-1.721V87.2H35.854a1.721,1.721,0,0,1-1.721-1.721V80.315a1.721,1.721,0,0,1,1.721-1.721H44.46V69.987a1.721,1.721,0,0,1,1.721-1.721h5.164a1.721,1.721,0,0,1,1.721,1.721v8.606h8.606a1.721,1.721,0,0,1,1.721,1.721v5.164A1.721,1.721,0,0,1,61.673,87.2H53.067v8.606A1.721,1.721,0,0,1,51.345,97.527ZM47.9,94.085h1.721V85.479a1.721,1.721,0,0,1,1.721-1.721h8.606V82.036H51.345a1.721,1.721,0,0,1-1.721-1.721V71.709H47.9v8.606a1.721,1.721,0,0,1-1.721,1.721H37.576v1.721h8.606A1.721,1.721,0,0,1,47.9,85.479Z" transform="translate(-34.133 -68.266)"/></g><rect class="d" width="5.164" height="8.606" transform="translate(87.783 44.461)"/><path class="b" d="M348.218,80.315h-5.164a1.721,1.721,0,0,1-1.721-1.721V69.987a1.721,1.721,0,0,1,1.721-1.721h5.164a1.721,1.721,0,0,1,1.721,1.721v8.606A1.721,1.721,0,0,1,348.218,80.315Zm-3.442-3.442H346.5V71.709h-1.721Z" transform="translate(-255.271 -25.526)"/><rect class="d" width="5.164" height="8.606" transform="translate(87.783 61.674)"/><path class="b" d="M348.218,148.582h-5.164a1.721,1.721,0,0,1-1.721-1.721v-8.606a1.721,1.721,0,0,1,1.721-1.721h5.164a1.721,1.721,0,0,1,1.721,1.721v8.606A1.721,1.721,0,0,1,348.218,148.582Zm-3.442-3.442H346.5v-5.164h-1.721Z" transform="translate(-255.271 -76.581)"/><rect class="d" width="8.606" height="5.164" transform="translate(77.456 54.789)"/><path class="b" d="M310.7,117.832h-8.606a1.721,1.721,0,0,1-1.721-1.721v-5.164a1.721,1.721,0,0,1,1.721-1.721H310.7a1.721,1.721,0,0,1,1.721,1.721v5.164A1.721,1.721,0,0,1,310.7,117.832Zm-6.885-3.442h5.164v-1.721h-5.164Z" transform="translate(-224.639 -56.159)"/><rect class="d" width="8.606" height="5.164" transform="translate(94.668 54.789)"/><path class="b" d="M378.967,117.832h-8.606a1.721,1.721,0,0,1-1.721-1.721v-5.164a1.721,1.721,0,0,1,1.721-1.721h8.606a1.721,1.721,0,0,1,1.721,1.721v5.164A1.721,1.721,0,0,1,378.967,117.832Zm-6.885-3.442h5.164v-1.721h-5.164Z" transform="translate(-275.693 -56.159)"/><g transform="translate(44.752 44.461)"><circle class="e" cx="10.327" cy="10.327" r="10.327" transform="translate(1.721 1.721)"/><path class="e" d="M189.542,99.19A12.049,12.049,0,1,1,201.59,87.142,12.063,12.063,0,0,1,189.542,99.19Zm0-20.655a8.606,8.606,0,1,0,8.606,8.606A8.616,8.616,0,0,0,189.542,78.536Z" transform="translate(-177.493 -75.093)"/></g><path class="a" d="M233.942,131.6l-13.71-1.721V113.529a4.3,4.3,0,1,0-8.606,0v40.682a6.646,6.646,0,0,0,5.164,6.472v24.278h22.376V160.683a6.645,6.645,0,0,0,5.164-6.472V141.99A10.388,10.388,0,0,0,233.942,131.6Z" transform="translate(-158.268 -56.159)"/><g transform="translate(51.637 51.346)"><path class="b" d="M234.06,181.577H211.684a1.721,1.721,0,0,1-1.721-1.721V156.831a8.317,8.317,0,0,1-5.164-7.725V108.424a6.024,6.024,0,1,1,12.048,0v14.834l12.1,1.518a12.123,12.123,0,0,1,12,12.109v12.22a8.317,8.317,0,0,1-5.164,7.725v23.025A1.72,1.72,0,0,1,234.06,181.577Zm-20.655-3.443h18.934V155.577a1.722,1.722,0,0,1,1.336-1.677,4.9,4.9,0,0,0,3.828-4.794v-12.22a8.676,8.676,0,0,0-8.666-8.667,1.854,1.854,0,0,1-.214-.013l-13.71-1.721a1.721,1.721,0,0,1-1.507-1.708V108.424a2.582,2.582,0,1,0-5.164,0v40.681a4.9,4.9,0,0,0,3.828,4.794,1.722,1.722,0,0,1,1.336,1.677v22.557Z" transform="translate(-204.799 -102.4)"/><path class="b" d="M240.654,196.369a1.721,1.721,0,0,1-1.721-1.721v-8.606a1.721,1.721,0,0,1,3.443,0v8.606A1.721,1.721,0,0,1,240.654,196.369Z" transform="translate(-230.327 -163.665)"/><path class="b" d="M267.961,199.752a1.721,1.721,0,0,1-1.721-1.721v-5.164a1.721,1.721,0,1,1,3.443,0v5.164A1.721,1.721,0,0,1,267.961,199.752Z" transform="translate(-250.749 -168.77)"/><path class="b" d="M295.267,199.752a1.721,1.721,0,0,1-1.721-1.721v-5.164a1.721,1.721,0,0,1,3.443,0v5.164A1.721,1.721,0,0,1,295.267,199.752Z" transform="translate(-271.17 -168.77)"/></g></g></svg>