<svg xmlns="http://www.w3.org/2000/svg" width="512" height="545.817" viewBox="0 0 512 545.817">
  <g id="Grupo_359" data-name="Grupo 359" transform="translate(-3866 1043.817)">
    <g id="Grupo_358" data-name="Grupo 358" transform="translate(0 -1)">
      <path id="Polígono_3" data-name="Polígono 3" d="M56,0l56,146H0Z" transform="translate(4245 -993) rotate(90)" fill="#602f75"/>
      <path id="Polígono_4" data-name="Polígono 4" d="M56,0l56,146H0Z" transform="matrix(0.309, -0.951, 0.951, 0.309, 4085.268, -936.299)" fill="#602f75"/>
      <path id="Polígono_5" data-name="Polígono 5" d="M56,0l56,146H0Z" transform="matrix(-0.326, -0.946, 0.946, -0.326, 4130.209, -833.285)" fill="#602f75"/>
    </g>
    <g id="Grupo_356" data-name="Grupo 356">
      <rect id="Retângulo_199" data-name="Retângulo 199" width="363" height="78" transform="translate(3884 -674)" fill="#fff"/>
      <rect id="Retângulo_198" data-name="Retângulo 198" width="476" height="78" transform="translate(3879 -596)" fill="#fff"/>
      <rect id="Retângulo_200" data-name="Retângulo 200" width="234" height="78" transform="translate(4013 -752)" fill="#fff"/>
      <g id="best" transform="translate(3866 -1010)">
        <circle id="Elipse_212" data-name="Elipse 212" cx="10" cy="10" r="10" transform="translate(246 492)" fill="#ea3457"/>
        <path id="Caminho_1461" data-name="Caminho 1461" d="M502,399H386V256a10,10,0,0,0-10-10H236V140H406a10,10,0,0,0,8.944-14.472L387.18,70l27.764-55.528A10,10,0,0,0,406,0H226a10,10,0,0,0-10,10V246H136a10,10,0,0,0-10,10v83H10A10,10,0,0,0,0,349V502a10,10,0,0,0,10,10H211a10,10,0,0,0,0-20H20V359H136a10,10,0,0,0,10-10V266H366V409a10,10,0,0,0,10,10H492v73H301a10,10,0,0,0,0,20H502a10,10,0,0,0,10-10V409A10,10,0,0,0,502,399ZM236,20H389.82L367.056,65.528a10,10,0,0,0,0,8.943L389.82,120H236Z" fill="#602f75"/>
      </g>
    </g>
    <g id="Grupo_357" data-name="Grupo 357" transform="translate(-333 133)">
      <path id="Caminho_1462" data-name="Caminho 1462" d="M203.576,452.743a10,10,0,0,0,11.629.962l40.555-24.333,40.555,24.333a10,10,0,0,0,14.43-12.289L294.919,401.85l31.88-31.766A10,10,0,0,0,319.74,353H280.826l-15.774-39.693a10,10,0,0,0-18.586,0L230.693,353H191.77a10,10,0,0,0-7.058,17.085L216.6,401.851l-15.826,39.565A10,10,0,0,0,203.576,452.743ZM215.978,373h21.5a10,10,0,0,0,9.293-6.307l8.987-22.615,8.987,22.615A10,10,0,0,0,274.04,373h21.5l-19.416,19.346a10,10,0,0,0-2.226,10.8l7.255,18.139L260.9,409.136a10,10,0,0,0-10.29,0l-20.246,12.147,7.255-18.139a10,10,0,0,0-2.227-10.8Z" transform="translate(4196 -1148)" fill="#ffe600"/>
      <path id="Polígono_1" data-name="Polígono 1" d="M27.5,0,55,112H0Z" transform="translate(4424 -834)" fill="#ffe600"/>
      <path id="Polígono_2" data-name="Polígono 2" d="M27.5,0,55,112H0Z" transform="matrix(0.259, 0.966, -0.966, 0.259, 4518.474, -808.057)" fill="#ffe600"/>
    </g>
  </g>
</svg>
