<svg xmlns="http://www.w3.org/2000/svg" width="372.476" height="266" viewBox="0 0 372.476 266"><defs><style>.a{fill:#e0c0ee;font-size:166px;font-family:Catamaran-Black, Catamaran;font-weight:800;letter-spacing:0.15em;opacity:0.16;}.b,.g{fill:#fff;}.c{fill:#602f75;}.d{fill:#ea3457;}.e{fill:#00e7ff;}.f{fill:#ffe600;}.g{font-size:15px;font-family:Roboto-Regular, Roboto;}.h{font-family:Roboto-Bold, Roboto;font-weight:700;}</style></defs><g transform="translate(0 -801)"><text class="a" transform="translate(103 984)"><tspan x="-102.588" y="0">#1</tspan></text><g transform="translate(266.468 847.368) rotate(25)"><path class="b" d="M47.891,83.992H28.342A21.515,21.515,0,0,1,6.827,62.476h0A21.515,21.515,0,0,1,28.342,40.961H95.471a21.515,21.515,0,0,1,21.515,21.515h0A21.515,21.515,0,0,1,95.471,83.992H67.07" transform="translate(-5.106 -5.106)"/><path class="c" d="M90.365,80.607h-28.4a1.721,1.721,0,0,1,0-3.443h28.4a19.794,19.794,0,1,0,0-39.588H23.237a19.794,19.794,0,1,0,0,39.588H42.786a1.721,1.721,0,1,1,0,3.443H23.237a23.237,23.237,0,0,1,0-46.473H90.365a23.237,23.237,0,1,1,0,46.473Z" transform="translate(0 0)"/><g transform="translate(8.606 42.74)"><path class="d" d="M66.779,85.42H56.451V75.093H51.287V85.42H40.96v5.164H51.287v10.327h5.164V90.584H66.779Z" transform="translate(-39.239 -73.372)"/><path class="d" d="M51.345,97.527H46.182a1.721,1.721,0,0,1-1.721-1.721V87.2H35.854a1.721,1.721,0,0,1-1.721-1.721V80.315a1.721,1.721,0,0,1,1.721-1.721H44.46V69.987a1.721,1.721,0,0,1,1.721-1.721h5.164a1.721,1.721,0,0,1,1.721,1.721v8.606h8.606a1.721,1.721,0,0,1,1.721,1.721v5.164A1.721,1.721,0,0,1,61.673,87.2H53.067v8.606A1.721,1.721,0,0,1,51.345,97.527ZM47.9,94.085h1.721V85.479a1.721,1.721,0,0,1,1.721-1.721h8.606V82.036H51.345a1.721,1.721,0,0,1-1.721-1.721V71.709H47.9v8.606a1.721,1.721,0,0,1-1.721,1.721H37.576v1.721h8.606A1.721,1.721,0,0,1,47.9,85.479Z" transform="translate(-34.133 -68.266)"/></g><rect class="e" width="5.164" height="8.606" transform="translate(87.783 44.461)"/><path class="c" d="M348.218,80.315h-5.164a1.721,1.721,0,0,1-1.721-1.721V69.987a1.721,1.721,0,0,1,1.721-1.721h5.164a1.721,1.721,0,0,1,1.721,1.721v8.606A1.721,1.721,0,0,1,348.218,80.315Zm-3.442-3.442H346.5V71.709h-1.721Z" transform="translate(-255.271 -25.526)"/><rect class="e" width="5.164" height="8.606" transform="translate(87.783 61.674)"/><path class="c" d="M348.218,148.582h-5.164a1.721,1.721,0,0,1-1.721-1.721v-8.606a1.721,1.721,0,0,1,1.721-1.721h5.164a1.721,1.721,0,0,1,1.721,1.721v8.606A1.721,1.721,0,0,1,348.218,148.582Zm-3.442-3.442H346.5v-5.164h-1.721Z" transform="translate(-255.271 -76.581)"/><rect class="e" width="8.606" height="5.164" transform="translate(77.456 54.789)"/><path class="c" d="M310.7,117.832h-8.606a1.721,1.721,0,0,1-1.721-1.721v-5.164a1.721,1.721,0,0,1,1.721-1.721H310.7a1.721,1.721,0,0,1,1.721,1.721v5.164A1.721,1.721,0,0,1,310.7,117.832Zm-6.885-3.442h5.164v-1.721h-5.164Z" transform="translate(-224.639 -56.159)"/><rect class="e" width="8.606" height="5.164" transform="translate(94.668 54.789)"/><path class="c" d="M378.967,117.832h-8.606a1.721,1.721,0,0,1-1.721-1.721v-5.164a1.721,1.721,0,0,1,1.721-1.721h8.606a1.721,1.721,0,0,1,1.721,1.721v5.164A1.721,1.721,0,0,1,378.967,117.832Zm-6.885-3.442h5.164v-1.721h-5.164Z" transform="translate(-275.693 -56.159)"/><g transform="translate(44.752 44.461)"><circle class="f" cx="10.327" cy="10.327" r="10.327" transform="translate(1.721 1.721)"/><path class="f" d="M189.542,99.19A12.049,12.049,0,1,1,201.59,87.142,12.063,12.063,0,0,1,189.542,99.19Zm0-20.655a8.606,8.606,0,1,0,8.606,8.606A8.616,8.616,0,0,0,189.542,78.536Z" transform="translate(-177.493 -75.093)"/></g><path class="b" d="M233.942,131.6l-13.71-1.721V113.529a4.3,4.3,0,1,0-8.606,0v40.682a6.646,6.646,0,0,0,5.164,6.472v24.278h22.376V160.683a6.645,6.645,0,0,0,5.164-6.472V141.99A10.388,10.388,0,0,0,233.942,131.6Z" transform="translate(-158.268 -56.159)"/><g transform="translate(51.637 51.346)"><path class="c" d="M234.06,181.577H211.684a1.721,1.721,0,0,1-1.721-1.721V156.831a8.317,8.317,0,0,1-5.164-7.725V108.424a6.024,6.024,0,1,1,12.048,0v14.834l12.1,1.518a12.123,12.123,0,0,1,12,12.109v12.22a8.317,8.317,0,0,1-5.164,7.725v23.025A1.72,1.72,0,0,1,234.06,181.577Zm-20.655-3.443h18.934V155.577a1.722,1.722,0,0,1,1.336-1.677,4.9,4.9,0,0,0,3.828-4.794v-12.22a8.676,8.676,0,0,0-8.666-8.667,1.854,1.854,0,0,1-.214-.013l-13.71-1.721a1.721,1.721,0,0,1-1.507-1.708V108.424a2.582,2.582,0,1,0-5.164,0v40.681a4.9,4.9,0,0,0,3.828,4.794,1.722,1.722,0,0,1,1.336,1.677v22.557Z" transform="translate(-204.799 -102.4)"/><path class="c" d="M240.654,196.369a1.721,1.721,0,0,1-1.721-1.721v-8.606a1.721,1.721,0,0,1,3.443,0v8.606A1.721,1.721,0,0,1,240.654,196.369Z" transform="translate(-230.327 -163.665)"/><path class="c" d="M267.961,199.752a1.721,1.721,0,0,1-1.721-1.721v-5.164a1.721,1.721,0,1,1,3.443,0v5.164A1.721,1.721,0,0,1,267.961,199.752Z" transform="translate(-250.749 -168.77)"/><path class="c" d="M295.267,199.752a1.721,1.721,0,0,1-1.721-1.721v-5.164a1.721,1.721,0,0,1,3.443,0v5.164A1.721,1.721,0,0,1,295.267,199.752Z" transform="translate(-271.17 -168.77)"/></g></g><text class="g" transform="translate(47 913)"><tspan x="0" y="0">Responda </tspan><tspan class="h" y="0" xml:space="preserve">corretamente  e</tspan><tspan class="h"><tspan x="0" y="30">no menor tempo possível. </tspan></tspan><tspan x="0" y="60">Todas as questões envolvem </tspan><tspan x="0" y="90" xml:space="preserve">tópicos  importantes sobre </tspan><tspan x="0" y="120">o novo coronavírus e como combatê-lo. </tspan></text><g transform="translate(337 798.281)"><rect class="f" width="8.906" height="4.75" transform="translate(19.594 95.907)"/><path class="c" d="M227.953,107.484h-8.906a.594.594,0,0,1-.594-.594v-4.75a.594.594,0,0,1,.594-.594h8.906a.594.594,0,0,1,.594.594v4.75A.594.594,0,0,1,227.953,107.484Zm-8.312-1.188h7.719v-3.562h-7.719Z" transform="translate(-199.453 -6.234)"/><g transform="translate(16.625 94.719)"><rect class="d" width="2.375" height="5.937" transform="translate(0.594 0.594)"/><path class="d" d="M194.115,101.844H191.74a.594.594,0,0,1-.594-.594V95.313a.594.594,0,0,1,.594-.594h2.375a.594.594,0,0,1,.594.594v5.937A.594.594,0,0,1,194.115,101.844Zm-1.781-1.187h1.187v-4.75h-1.187Z" transform="translate(-191.146 -94.719)"/></g><path class="e" d="M334.063,116.981h0a5.876,5.876,0,0,0-4.2-1.781h-2.18v3.562h2.18A5.876,5.876,0,0,0,334.063,116.981Z" transform="translate(-299.18 -18.7)"/><path class="c" d="M323.627,113.123h-2.18a.594.594,0,0,1-.594-.594v-3.562a.594.594,0,0,1,.594-.594h2.18a6.427,6.427,0,0,1,4.627,1.96.594.594,0,0,1,0,.83A6.427,6.427,0,0,1,323.627,113.123Zm-1.587-1.187h1.587a5.228,5.228,0,0,0,3.324-1.187,5.228,5.228,0,0,0-3.324-1.187h-1.587Z" transform="translate(-292.947 -12.466)"/><g transform="translate(5.937 95.313)"><path class="e" d="M114.571,102.734h-4.75a.594.594,0,0,1,0-1.188h4.75a.594.594,0,0,1,0,1.188Z" transform="translate(-105.664 -101.546)"/><path class="e" d="M77.172,130.041H68.86a.594.594,0,1,1,0-1.188h8.312a.594.594,0,0,1,0,1.188Z" transform="translate(-68.266 -126.478)"/><path class="e" d="M151.968,157.348h-1.187a.594.594,0,0,1,0-1.188h1.187a.594.594,0,0,1,0,1.188Z" transform="translate(-143.062 -151.41)"/><path class="e" d="M85.482,157.348H82.514a.594.594,0,1,1,0-1.188h2.969a.594.594,0,0,1,0,1.188Z" transform="translate(-80.732 -151.41)"/></g><path class="f" d="M153.673,244.907h5.421v4.75h-8.906v-4.75" transform="translate(-137.125 -137.126)"/><path class="c" d="M152.86,244.017h-8.906a.594.594,0,0,1-.594-.594v-4.75a.594.594,0,1,1,1.188,0v4.156h7.719v-3.562h-4.827a.594.594,0,0,1,0-1.188h5.421a.594.594,0,0,1,.594.594v4.75A.594.594,0,0,1,152.86,244.017Z" transform="translate(-130.891 -130.892)"/><g transform="translate(10.094 106.594)"><rect class="d" width="2.375" height="5.937" transform="translate(0.594 0.594)"/><path class="d" d="M119.022,238.378h-2.375a.594.594,0,0,1-.594-.594v-5.937a.594.594,0,0,1,.594-.594h2.375a.594.594,0,0,1,.594.594v5.937A.594.594,0,0,1,119.022,238.378Zm-1.781-1.188h1.187v-4.75h-1.187Z" transform="translate(-116.053 -231.253)"/></g><path class="e" d="M258.969,253.515h0a5.876,5.876,0,0,0-4.2-1.781h-2.18V255.3h2.18A5.876,5.876,0,0,0,258.969,253.515Z" transform="translate(-230.617 -143.359)"/><path class="c" d="M248.533,249.656h-2.18a.594.594,0,0,1-.594-.594V245.5a.594.594,0,0,1,.594-.594h2.18a6.427,6.427,0,0,1,4.627,1.96.594.594,0,0,1,0,.83A6.427,6.427,0,0,1,248.533,249.656Zm-1.587-1.187h1.587a5.228,5.228,0,0,0,3.324-1.187,5.228,5.228,0,0,0-3.324-1.187h-1.587Z" transform="translate(-224.384 -137.125)"/><g transform="translate(0 107.188)"><path class="e" d="M39.477,239.268h-4.75a.594.594,0,0,1,0-1.188h4.75a.594.594,0,0,1,0,1.188Z" transform="translate(-31.164 -238.08)"/><path class="e" d="M51.942,266.574H48.38a.594.594,0,0,1,0-1.188h3.562a.594.594,0,0,1,0,1.188Z" transform="translate(-43.63 -263.011)"/><path class="e" d="M76.874,293.881H75.687a.594.594,0,0,1,0-1.188h1.187a.594.594,0,0,1,0,1.188Z" transform="translate(-68.562 -287.943)"/><path class="e" d="M2.375,266.574H.594a.594.594,0,0,1,0-1.188H2.375a.594.594,0,0,1,0,1.188Z" transform="translate(0 -263.011)"/></g></g><g transform="translate(240 720.751)"><g transform="translate(0 140.288)"><path class="d" d="M7.752,153.836a3.946,3.946,0,0,1,2.463-6.457,4.61,4.61,0,0,1,.464-.023,4.529,4.529,0,0,1,3.779,2.03,4.537,4.537,0,0,1,4.242-2.006,3.946,3.946,0,0,1,2.463,6.457l-6.705,8.116Z" transform="translate(-5.885 -146.408)"/><path class="d" d="M8.572,157.022a.945.945,0,0,1-.73-.344l-6.705-8.116h0a4.994,4.994,0,0,1-.755-5.089,4.63,4.63,0,0,1,3.854-2.915,5.522,5.522,0,0,1,.558-.029,5.465,5.465,0,0,1,3.779,1.511,5.538,5.538,0,0,1,4.34-1.483,4.631,4.631,0,0,1,3.851,2.914,4.994,4.994,0,0,1-.755,5.089L9.3,156.677A.944.944,0,0,1,8.572,157.022ZM2.6,147.355l5.975,7.231,5.975-7.231a3.1,3.1,0,0,0,.462-3.162,2.725,2.725,0,0,0-2.29-1.748,3.6,3.6,0,0,0-3.358,1.587.949.949,0,0,1-.79.423h0a.948.948,0,0,1-.79-.424,3.625,3.625,0,0,0-3.354-1.586,2.726,2.726,0,0,0-2.294,1.748,3.1,3.1,0,0,0,.462,3.162Z" transform="translate(0 -140.53)"/></g><path class="f" d="M137.459,153.836a3.946,3.946,0,0,1,2.463-6.457,4.61,4.61,0,0,1,.464-.023,4.529,4.529,0,0,1,3.779,2.03,4.537,4.537,0,0,1,4.242-2.006,3.946,3.946,0,0,1,2.463,6.457l-6.705,8.116Z" transform="translate(-117.585 -6.12)"/><path class="c" d="M138.279,157.022a.945.945,0,0,1-.73-.344l-6.705-8.116h0a4.994,4.994,0,0,1-.755-5.089,4.63,4.63,0,0,1,3.854-2.915,5.523,5.523,0,0,1,.558-.029,5.465,5.465,0,0,1,3.779,1.511,5.536,5.536,0,0,1,4.34-1.483,4.631,4.631,0,0,1,3.851,2.914,4.994,4.994,0,0,1-.755,5.089l-6.705,8.116A.944.944,0,0,1,138.279,157.022Zm-5.975-9.667,5.975,7.231,5.975-7.231a3.1,3.1,0,0,0,.462-3.162,2.725,2.725,0,0,0-2.29-1.748,3.6,3.6,0,0,0-3.358,1.587.949.949,0,0,1-.79.423h0a.948.948,0,0,1-.79-.424,3.625,3.625,0,0,0-3.354-1.586,2.726,2.726,0,0,0-2.294,1.748,3.1,3.1,0,0,0,.462,3.162Z" transform="translate(-111.7 -0.242)"/><path class="e" d="M336.06,144.988a.947.947,0,0,1-.948-.948V141.2a.948.948,0,0,1,1.9,0v2.843A.947.947,0,0,1,336.06,144.988Z" transform="translate(-288.589 0)"/><path class="e" d="M336.06,233.734a.947.947,0,0,1-.948-.948v-2.843a.948.948,0,1,1,1.9,0v2.843A.947.947,0,0,1,336.06,233.734Z" transform="translate(-288.589 -76.426)"/><g transform="translate(46.523 140.249)"><path class="e" d="M336.06,144.988a.947.947,0,0,1-.948-.948V141.2a.948.948,0,0,1,1.9,0v2.843A.947.947,0,0,1,336.06,144.988Z" transform="translate(-335.112 -140.249)"/></g><g transform="translate(46.523 152.569)"><path class="e" d="M336.06,233.734a.947.947,0,0,1-.948-.948v-2.843a.948.948,0,1,1,1.9,0v2.843A.947.947,0,0,1,336.06,233.734Z" transform="translate(-335.112 -228.995)"/></g><path class="e" d="M284.289,196.758h-2.843a.948.948,0,0,1,0-1.9h2.843a.948.948,0,0,1,0,1.9Z" transform="translate(-241.557 -47.031)"/><path class="e" d="M373.036,196.758h-2.843a.948.948,0,0,1,0-1.9h2.843a.948.948,0,1,1,0,1.9Z" transform="translate(-317.984 -47.031)"/><g transform="translate(38.941 147.831)"><path class="e" d="M284.289,196.758h-2.843a.948.948,0,0,1,0-1.9h2.843a.948.948,0,0,1,0,1.9Z" transform="translate(-280.498 -194.862)"/></g><g transform="translate(51.261 147.831)"><path class="e" d="M373.036,196.758h-2.843a.948.948,0,0,1,0-1.9h2.843a.948.948,0,1,1,0,1.9Z" transform="translate(-369.245 -194.862)"/></g><path class="e" d="M299.454,160.15a.944.944,0,0,1-.67-.278l-2.011-2.011a.948.948,0,0,1,1.34-1.34l2.011,2.011a.948.948,0,0,1-.67,1.618Z" transform="translate(-255.334 -13.774)"/><path class="e" d="M362.206,222.9a.944.944,0,0,1-.67-.278l-2.011-2.011a.948.948,0,1,1,1.34-1.34l2.011,2.011a.948.948,0,0,1-.67,1.618Z" transform="translate(-309.374 -67.816)"/><g transform="translate(41.162 142.469)"><path class="e" d="M299.454,160.15a.944.944,0,0,1-.67-.278l-2.011-2.011a.948.948,0,0,1,1.34-1.34l2.011,2.011a.948.948,0,0,1-.67,1.618Z" transform="translate(-296.496 -156.243)"/></g><g transform="translate(49.873 151.181)"><path class="e" d="M362.206,222.9a.944.944,0,0,1-.67-.278l-2.011-2.011a.948.948,0,1,1,1.34-1.34l2.011,2.011a.948.948,0,0,1-.67,1.618Z" transform="translate(-359.248 -218.997)"/></g><path class="e" d="M297.441,222.9a.948.948,0,0,1-.67-1.618l2.011-2.011a.948.948,0,0,1,1.34,1.34l-2.011,2.011A.945.945,0,0,1,297.441,222.9Z" transform="translate(-255.332 -67.816)"/><path class="e" d="M360.2,160.15a.948.948,0,0,1-.67-1.618l2.011-2.011a.948.948,0,0,1,1.34,1.34l-2.011,2.011A.945.945,0,0,1,360.2,160.15Z" transform="translate(-309.374 -13.774)"/><g transform="translate(41.161 151.181)"><path class="e" d="M297.441,222.9a.948.948,0,0,1-.67-1.618l2.011-2.011a.948.948,0,0,1,1.34,1.34l-2.011,2.011A.945.945,0,0,1,297.441,222.9Z" transform="translate(-296.494 -218.997)"/></g><g transform="translate(49.873 142.469)"><path class="e" d="M360.2,160.15a.948.948,0,0,1-.67-1.618l2.011-2.011a.948.948,0,0,1,1.34,1.34l-2.011,2.011A.945.945,0,0,1,360.2,160.15Z" transform="translate(-359.248 -156.244)"/></g></g></g></svg>