<svg xmlns="http://www.w3.org/2000/svg" width="113.863" height="124.666" viewBox="0 0 113.863 124.666"><defs><style>.a{fill:#602f75;}.b{fill:#ffe600;}.c{fill:#fff;}.d{fill:#ea3457;}.e{fill:#00e7ff;}</style></defs><g transform="translate(-24.494 31.104) rotate(-17)"><g transform="translate(23.894 5.624)"><path class="a" d="M44.516,71.1A20.646,20.646,0,0,1,23.894,50.476V22.355a1.875,1.875,0,0,1,1.875-1.875H44.517a1.875,1.875,0,0,1,1.875,1.875V69.224A1.876,1.876,0,0,1,44.516,71.1ZM27.643,24.229V50.476a16.9,16.9,0,0,0,15,16.769V24.229Z" transform="translate(-23.894 -20.48)"/><path class="a" d="M285.181,71.1a1.875,1.875,0,0,1-1.875-1.875V22.355a1.875,1.875,0,0,1,1.875-1.875h18.748a1.875,1.875,0,0,1,1.875,1.875V50.476A20.646,20.646,0,0,1,285.181,71.1Zm1.875-46.869V67.246a16.9,16.9,0,0,0,15-16.769V24.229Z" transform="translate(-212.065 -20.48)"/></g><rect class="b" width="7.499" height="22.497" transform="translate(67.014 67.492)"/><path class="a" d="M183.453,265.18h-7.5a1.875,1.875,0,0,1-1.875-1.875v-22.5a1.875,1.875,0,0,1,1.875-1.875h7.5a1.875,1.875,0,0,1,1.875,1.875v22.5A1.875,1.875,0,0,1,183.453,265.18Zm-5.624-3.75h3.749V242.682h-3.749Z" transform="translate(-108.94 -173.316)"/><path class="c" d="M105.426,74.319h0A33.746,33.746,0,0,1,71.68,40.573V6.827h67.492V40.573A33.746,33.746,0,0,1,105.426,74.319Z" transform="translate(-34.663 -4.952)"/><path class="a" d="M100.474,71.241A35.661,35.661,0,0,1,64.853,35.621V1.875A1.875,1.875,0,0,1,66.728,0H134.22a1.875,1.875,0,0,1,1.875,1.875V35.621A35.661,35.661,0,0,1,100.474,71.241ZM68.6,3.749V35.621a31.871,31.871,0,1,0,63.742,0V3.749Z" transform="translate(-29.711)"/><path class="d" d="M149.145,77.4h0A17.194,17.194,0,0,1,131.951,60.2V13.653h34.388V60.2A17.194,17.194,0,0,1,149.145,77.4Z" transform="translate(-78.382 -9.904)"/><path class="c" d="M147.378,327.68h7.18v15H105.813v-15h28.122" transform="translate(-59.422 -237.691)"/><path class="a" d="M149.605,339.6H100.861a1.875,1.875,0,0,1-1.875-1.875v-15a1.875,1.875,0,0,1,1.875-1.875h28.122a1.875,1.875,0,1,1,0,3.75H102.736v11.249H147.73V324.6h-5.3a1.875,1.875,0,0,1,0-3.75h7.18a1.875,1.875,0,0,1,1.875,1.875v15A1.875,1.875,0,0,1,149.605,339.6Z" transform="translate(-54.47 -232.739)"/><rect class="e" width="26.247" height="9.374" transform="translate(57.64 95.614)"/><g transform="translate(29.518 93.739)"><path class="a" d="M168.069,354.457H141.822a1.875,1.875,0,0,1-1.875-1.875v-9.374a1.875,1.875,0,0,1,1.875-1.875h26.247a1.875,1.875,0,0,1,1.875,1.875v9.374A1.875,1.875,0,0,1,168.069,354.457ZM143.7,350.707h22.5v-5.624H143.7Z" transform="translate(-113.7 -341.333)"/><path class="a" d="M124.988,379.216H46.248a1.875,1.875,0,0,1,0-3.75h78.741a1.875,1.875,0,0,1,0,3.75Z" transform="translate(-44.373 -366.092)"/></g><g transform="translate(57.64 11.249)"><path class="b" d="M156.147,106.149h-7.5a1.875,1.875,0,0,1,0-3.75h7.5a1.875,1.875,0,1,1,0,3.75Z" transform="translate(-146.773 -85.526)"/><path class="b" d="M162.3,99.995a1.875,1.875,0,0,1-1.875-1.875v-7.5a1.875,1.875,0,1,1,3.75,0v7.5A1.875,1.875,0,0,1,162.3,99.995Z" transform="translate(-156.677 -75.623)"/><path class="b" d="M217.587,58.363h-7.5a1.875,1.875,0,0,1,0-3.75h7.5a1.875,1.875,0,0,1,0,3.75Z" transform="translate(-191.34 -50.864)"/><path class="b" d="M223.741,52.209a1.875,1.875,0,0,1-1.875-1.875v-7.5a1.875,1.875,0,1,1,3.75,0v7.5A1.875,1.875,0,0,1,223.741,52.209Z" transform="translate(-201.244 -40.96)"/><path class="b" d="M272.2,276.816h-7.5a1.875,1.875,0,0,1,0-3.75h7.5a1.875,1.875,0,0,1,0,3.75Z" transform="translate(-230.955 -209.324)"/><path class="b" d="M278.355,270.662a1.875,1.875,0,0,1-1.875-1.875v-7.5a1.875,1.875,0,0,1,3.75,0v7.5A1.875,1.875,0,0,1,278.355,270.662Z" transform="translate(-240.859 -199.42)"/></g></g></svg>