<svg xmlns="http://www.w3.org/2000/svg" width="271.298" height="271.298" viewBox="0 0 271.298 271.298">
  <g id="Grupo_362" data-name="Grupo 362" transform="translate(547.029 -180.971)">
    <path id="Caminho_1360" data-name="Caminho 1360" d="M183.835,54.591a94.435,94.435,0,1,0,11.3,32.241" transform="translate(-512.827 215.173)" fill="#fff"/>
    <path id="Caminho_1360-2" data-name="Caminho 1360" d="M99.3,198.6A99.3,99.3,0,1,1,185.561,50.071a3.31,3.31,0,1,1-5.747,3.284A92.71,92.71,0,1,0,191.984,99.3a94.073,94.073,0,0,0-1.112-14.41,3.31,3.31,0,1,1,6.542-1.015A100.655,100.655,0,0,1,198.6,99.3,99.415,99.415,0,0,1,99.3,198.6Z" transform="translate(-547.029 352.967) rotate(-60)" fill="#602f75"/>
    <g id="Grupo_347" data-name="Grupo 347" transform="translate(-605 92)">
      <text id="Desafio_Covid_" data-name="Desafio Covid
" transform="translate(194 218)" fill="#585374" font-size="20" font-family="Helvetica-Bold, Helvetica" font-weight="700" letter-spacing="0.15em"><tspan x="-83.18" y="0">Desafio Covid</tspan><tspan x="0" y="24"></tspan></text>
      <text id="Fake_ou_News" data-name="Fake ou News" transform="translate(194 247)" fill="#585374" font-size="15" font-family="Helvetica-Bold, Helvetica" font-weight="700" letter-spacing="0.15em"><tspan x="-62.392" y="0">Fake ou News</tspan></text>
      <rect id="Retângulo_105" data-name="Retângulo 105" width="127" height="1" transform="translate(131 227)" fill="#4a83a6"/>
    </g>
    <g id="Grupo_360" data-name="Grupo 360" transform="translate(-456 207.432)">
      <g id="_051-game" data-name="051-game" transform="translate(0 0)">
        <path id="Caminho_612" data-name="Caminho 612" d="M39.342,75.033H23.863A17.036,17.036,0,0,1,6.827,58h0A17.036,17.036,0,0,1,23.863,40.961H77.016A17.036,17.036,0,0,1,94.052,58h0A17.036,17.036,0,0,1,77.016,75.033H54.528" transform="translate(-5.464 -39.598)" fill="#fff"/>
        <path id="Caminho_613" data-name="Caminho 613" d="M71.552,70.932H32.431c-.753,0-4.294-.61-4.294-1.363s-11.644-1.363-10.892-1.363H71.552a15.673,15.673,0,1,0,0-31.346H18.4a15.673,15.673,0,1,0,0,31.347H33.878a1.363,1.363,0,1,1,0,2.726H18.4a18.4,18.4,0,1,1,0-36.8H71.552a18.4,18.4,0,1,1,0,36.8Z" transform="translate(0 -34.134)" fill="#602f75"/>
        <g id="Grupo_121" data-name="Grupo 121" transform="translate(6.814 6.814)">
          <path id="Caminho_614" data-name="Caminho 614" d="M61.4,83.27H53.226V75.093H49.137V83.27H40.96v4.089h8.177v8.177h4.089V87.359H61.4Z" transform="translate(-39.597 -73.73)" fill="#ea3457"/>
          <path id="Caminho_615" data-name="Caminho 615" d="M47.762,91.435H43.673a1.363,1.363,0,0,1-1.363-1.363V83.258H35.5A1.363,1.363,0,0,1,34.133,81.9V77.806A1.363,1.363,0,0,1,35.5,76.443H42.31V69.629a1.363,1.363,0,0,1,1.363-1.363h4.089a1.363,1.363,0,0,1,1.363,1.363v6.814h6.814A1.363,1.363,0,0,1,57.3,77.806V81.9a1.363,1.363,0,0,1-1.363,1.363H49.125v6.814A1.363,1.363,0,0,1,47.762,91.435ZM45.036,88.71H46.4V81.9a1.363,1.363,0,0,1,1.363-1.363h6.814V79.169H47.762A1.363,1.363,0,0,1,46.4,77.806V70.992H45.036v6.814a1.363,1.363,0,0,1-1.363,1.363H36.859v1.363h6.814A1.363,1.363,0,0,1,45.036,81.9Z" transform="translate(-34.133 -68.266)" fill="#ea3457"/>
        </g>
        <rect id="Retângulo_63" data-name="Retângulo 63" width="4.089" height="6.814" transform="translate(69.508 8.177)" fill="#00e7ff"/>
        <path id="Caminho_616" data-name="Caminho 616" d="M346.785,77.806H342.7a1.363,1.363,0,0,1-1.363-1.363V69.629a1.363,1.363,0,0,1,1.363-1.363h4.089a1.363,1.363,0,0,1,1.363,1.363v6.814A1.363,1.363,0,0,1,346.785,77.806Zm-2.726-2.726h1.363V70.992h-1.363Z" transform="translate(-273.188 -61.452)" fill="#602f75"/>
        <rect id="Retângulo_64" data-name="Retângulo 64" width="4.089" height="6.814" transform="translate(69.508 21.806)" fill="#00e7ff"/>
        <path id="Caminho_617" data-name="Caminho 617" d="M346.785,146.073H342.7a1.363,1.363,0,0,1-1.363-1.363V137.9a1.363,1.363,0,0,1,1.363-1.363h4.089a1.363,1.363,0,0,1,1.363,1.363v6.814A1.363,1.363,0,0,1,346.785,146.073Zm-2.726-2.726h1.363v-4.089h-1.363Z" transform="translate(-273.188 -116.09)" fill="#602f75"/>
        <rect id="Retângulo_65" data-name="Retângulo 65" width="6.814" height="4.089" transform="translate(61.33 16.355)" fill="#00e7ff"/>
        <path id="Caminho_618" data-name="Caminho 618" d="M308.55,116.041h-6.814a1.363,1.363,0,0,1-1.363-1.363v-4.089a1.363,1.363,0,0,1,1.363-1.363h6.814a1.363,1.363,0,0,1,1.363,1.363v4.089A1.363,1.363,0,0,1,308.55,116.041Zm-5.451-2.726h4.089v-1.363H303.1Z" transform="translate(-240.406 -94.234)" fill="#602f75"/>
        <rect id="Retângulo_66" data-name="Retângulo 66" width="6.814" height="4.089" transform="translate(74.959 16.355)" fill="#00e7ff"/>
        <path id="Caminho_619" data-name="Caminho 619" d="M376.817,116.041H370a1.363,1.363,0,0,1-1.363-1.363v-4.089A1.363,1.363,0,0,1,370,109.226h6.814a1.363,1.363,0,0,1,1.363,1.363v4.089A1.363,1.363,0,0,1,376.817,116.041Zm-5.452-2.726h4.089v-1.363h-4.089Z" transform="translate(-295.043 -94.234)" fill="#602f75"/>
      </g>
      <g id="Grupo_344" data-name="Grupo 344" transform="translate(33.074 11.963)">
        <g id="Grupo_338" data-name="Grupo 338" transform="translate(14.268 2.111)">
          <g id="Grupo_337" data-name="Grupo 337" transform="translate(0)">
            <ellipse id="Elipse_58" data-name="Elipse 58" cx="4.104" cy="4.104" rx="4.104" ry="4.104" transform="translate(0.373 0.373)" fill="#ffe600"/>
            <path id="Caminho_438" data-name="Caminho 438" d="M250.237,8.954a4.477,4.477,0,1,1,4.477-4.477A4.482,4.482,0,0,1,250.237,8.954Zm0-8.208a3.731,3.731,0,1,0,3.731,3.731A3.735,3.735,0,0,0,250.237.746Z" transform="translate(-245.76)" fill="#ffe600"/>
          </g>
          <path id="Caminho_1459" data-name="Caminho 1459" d="M288.958,45.431a.376.376,0,0,1-.233-.082l-1.865-1.492a.373.373,0,1,1,.466-.583l1.473,1.178,1.305-3.264a.373.373,0,1,1,.693.277L289.3,45.2a.373.373,0,0,1-.251.222A.369.369,0,0,1,288.958,45.431Z" transform="translate(-284.481 -38.715)" fill="#ea3457"/>
        </g>
        <g id="Grupo_339" data-name="Grupo 339" transform="translate(6.484 0) rotate(45)">
          <g id="Grupo_65" data-name="Grupo 65" transform="translate(0 0)">
            <circle id="Elipse_56" data-name="Elipse 56" cx="4.203" cy="4.203" r="4.203" transform="translate(0.382 0.382)" fill="#ffe600"/>
            <path id="Caminho_428" data-name="Caminho 428" d="M4.585,9.17A4.585,4.585,0,1,1,9.17,4.585,4.59,4.59,0,0,1,4.585,9.17Zm0-8.406A3.821,3.821,0,1,0,8.406,4.585,3.825,3.825,0,0,0,4.585.764Z" fill="#ffe600"/>
          </g>
          <g id="Grupo_66" data-name="Grupo 66" transform="translate(1.91 1.91)">
            <path id="Caminho_429" data-name="Caminho 429" d="M.382,5.349A.382.382,0,0,1,0,4.967V.382a.382.382,0,1,1,.764,0V4.967A.382.382,0,0,1,.382,5.349Z" transform="translate(2.292 0)" fill="#ea3457"/>
            <path id="Caminho_430" data-name="Caminho 430" d="M4.967.764H.382A.382.382,0,0,1,.382,0H4.967a.382.382,0,0,1,0,.764Z" transform="translate(0 2.292)" fill="#ea3457"/>
          </g>
        </g>
      </g>
    </g>
  </g>
</svg>
