<svg xmlns="http://www.w3.org/2000/svg" width="459.915" height="459.915" viewBox="0 0 459.915 459.915"><defs><style>.a{opacity:0.4;}.b{fill:#967a44;}.c{fill:#ba9b48;}.d{fill:#dcd5f2;}.e{fill:#8b75a1;}</style></defs><g class="a" transform="translate(71.372 -56.138) rotate(16)"><g transform="translate(125.485 25.896)"><path class="b" d="M0,0H12.449V418.462H0Z" transform="translate(19.998 14.474) rotate(-22.5)"/><path class="b" d="M59.975,14.977,19.6,31.7a6.223,6.223,0,1,1-4.755-11.5L55.219,3.474a6.224,6.224,0,1,1,4.756,11.5Z" transform="translate(-10.988 -3)"/><path class="b" d="M72.731,45.633,32.36,62.351a6.223,6.223,0,1,1-4.755-11.5L67.975,34.13a6.224,6.224,0,1,1,4.756,11.5Z" transform="translate(135.052 347.971)"/><path class="b" d="M0,0H12.449V418.462H0Z" transform="translate(31.49 401.092) rotate(-157.5)"/><path class="b" d="M19.6,34.131,59.975,50.849a6.224,6.224,0,1,1-4.756,11.5L14.848,45.633A6.224,6.224,0,1,1,19.6,34.13Z" transform="translate(-11 347.971)"/><path class="b" d="M32.361,3.475,72.732,20.193a6.224,6.224,0,1,1-4.756,11.5L27.605,14.977a6.224,6.224,0,1,1,4.756-11.5Z" transform="translate(135.051 -3)"/></g><g transform="translate(25.908 125.485)"><path class="b" d="M0,0H12.449V418.462H0Z" transform="translate(396.323 19.998) rotate(67.5)"/><path class="b" d="M50.849,59.975,34.131,19.6a6.223,6.223,0,1,1,11.5-4.755L62.352,55.219a6.224,6.224,0,1,1-11.5,4.756Z" transform="translate(347.97 -10.988)"/><path class="b" d="M20.193,72.731,3.475,32.36a6.223,6.223,0,1,1,11.5-4.755L31.7,67.975a6.224,6.224,0,1,1-11.5,4.756Z" transform="translate(-3 135.052)"/><path class="b" d="M0,0H12.449V418.462H0Z" transform="translate(9.705 31.49) rotate(-67.5)"/><path class="b" d="M31.7,19.6,14.978,59.975a6.224,6.224,0,1,1-11.5-4.756L20.194,14.848A6.224,6.224,0,1,1,31.7,19.6Z" transform="translate(-3.001 -11)"/><path class="b" d="M62.353,32.361,45.634,72.732a6.224,6.224,0,1,1-11.5-4.756L50.85,27.605a6.224,6.224,0,1,1,11.5,4.756Z" transform="translate(347.97 135.051)"/></g><g transform="translate(1 1)"><path class="c" d="M19,1H31.449V461.6H19Z" transform="translate(205.076 -1)"/><path class="c" d="M73.019,13.449H23.224A6.224,6.224,0,0,1,23.224,1H73.019a6.224,6.224,0,1,1,0,12.449Z" transform="translate(182.179 -1)"/><path class="c" d="M0,0H12.449V460.6H0Z" transform="translate(0 236.525) rotate(-90)"/><path class="c" d="M13.449,23.224V73.019A6.224,6.224,0,1,1,1,73.019V23.224a6.224,6.224,0,0,1,12.449,0Z" transform="translate(-1 182.179)"/><path class="c" d="M49.449,23.224V73.019a6.224,6.224,0,1,1-12.449,0V23.224a6.224,6.224,0,1,1,12.449,0Z" transform="translate(411.152 182.179)"/><path class="c" d="M73.019,49.449H23.224a6.224,6.224,0,1,1,0-12.449H73.019a6.224,6.224,0,1,1,0,12.449Z" transform="translate(182.179 411.152)"/></g><g transform="translate(50.801 50.801)"><path class="c" d="M0,0H12.449V440.123H0Z" transform="translate(331.708 20.485) rotate(45)"/><path class="c" d="M67.2,50.83,32,15.625a6.224,6.224,0,1,1,8.8-8.8L76,42.029a6.224,6.224,0,1,1-8.8,8.8Z" transform="translate(283.174 -5)"/><path class="c" d="M0,0H12.449V440.123H0Z" transform="translate(20.485 29.291) rotate(-45)"/><path class="c" d="M50.83,15.625l-35.2,35.2a6.224,6.224,0,1,1-8.8-8.8l35.206-35.2a6.224,6.224,0,1,1,8.8,8.8Z" transform="translate(-5 -5)"/><path class="c" d="M76,40.8,40.8,76A6.224,6.224,0,1,1,32,67.2L67.2,32A6.224,6.224,0,1,1,76,40.8Z" transform="translate(283.185 283.174)"/><path class="c" d="M42.029,76,6.824,40.8a6.224,6.224,0,1,1,8.8-8.8L50.83,67.2a6.224,6.224,0,1,1-8.8,8.8Z" transform="translate(-5 283.185)"/></g><path class="d" d="M168.333,330.165C79.1,330.165,6.5,257.565,6.5,168.333S79.1,6.5,168.333,6.5,330.165,79.1,330.165,168.333,257.565,330.165,168.333,330.165Z" transform="translate(62.968 62.968)"/><path class="e" d="M174.057,18.449c85.809,0,155.608,69.8,155.608,155.608s-69.8,155.608-155.608,155.608S18.449,259.866,18.449,174.057,88.248,18.449,174.057,18.449m0-12.449A168.057,168.057,0,1,0,342.114,174.057,168.055,168.055,0,0,0,174.057,6Z" transform="translate(57.243 57.243)"/><path class="e" d="M25.827,35.962a6.548,6.548,0,0,1,1.021-8.652,6.448,6.448,0,0,1,8.714.909,6.027,6.027,0,0,1-.909,8.789,5.963,5.963,0,0,1-8.826-1.046Z" transform="translate(270.704 286.35)"/><path class="e" d="M14.91,28.272a6.331,6.331,0,0,1,8.652-.9,6.448,6.448,0,0,1,1.12,8.59,6.031,6.031,0,0,1-8.851,1.17A6.135,6.135,0,0,1,14.91,28.272Z" transform="translate(142.184 286.871)"/><path class="e" d="M24.6,14.535a6.548,6.548,0,0,1-1.021,8.652,6.449,6.449,0,0,1-8.714-.909,6.017,6.017,0,0,1,.909-8.789A5.938,5.938,0,0,1,24.6,14.535Z" transform="translate(141.479 125.766)"/><path class="e" d="M35.508,22.239a6.331,6.331,0,0,1-8.652.9,6.448,6.448,0,0,1-1.12-8.59,6.031,6.031,0,0,1,8.851-1.17A6.135,6.135,0,0,1,35.508,22.239Z" transform="translate(270.011 125.219)"/><circle class="e" cx="6.009" cy="6.009" r="6.009" transform="translate(275.229 224.972)"/><circle class="e" cx="6.009" cy="6.009" r="6.009" transform="translate(337.504 224.972)"/><circle class="e" cx="6.009" cy="6.009" r="6.009" transform="translate(175.807 224.972)"/><circle class="e" cx="6.009" cy="6.009" r="6.009" transform="translate(125.55 275.229)"/><circle class="e" cx="6.009" cy="6.009" r="6.009" transform="translate(125.55 175.807)"/><ellipse class="e" cx="6.555" cy="6.009" rx="6.555" ry="6.009" transform="translate(324.393 275.229)"/><ellipse class="e" cx="6.555" cy="6.009" rx="6.555" ry="6.009" transform="translate(324.393 175.807)"/><circle class="e" cx="6.009" cy="6.009" r="6.009" transform="translate(113.532 224.972)"/><circle class="e" cx="6.224" cy="6.224" r="6.224" transform="matrix(0.5, -0.866, 0.866, 0.5, 247.689, 183.79)"/><circle class="e" cx="6.224" cy="6.224" r="6.224" transform="matrix(0.5, -0.866, 0.866, 0.5, 197.893, 283.377)"/><circle class="e" cx="6.224" cy="6.224" r="6.224" transform="matrix(0.866, -0.5, 0.5, 0.866, 197.894, 179.224)"/><circle class="e" cx="6.224" cy="6.224" r="6.224" transform="matrix(0.5, -0.866, 0.866, 0.5, 247.69, 121.547)"/><circle class="e" cx="6.224" cy="6.224" r="6.224" transform="matrix(0.866, -0.5, 0.5, 0.866, 197.894, 116.982)"/><circle class="e" cx="6.224" cy="6.224" r="6.224" transform="matrix(0.866, -0.5, 0.5, 0.866, 247.688, 278.811)"/><circle class="e" cx="6.224" cy="6.224" r="6.224" transform="matrix(0.5, -0.866, 0.866, 0.5, 197.894, 345.619)"/><circle class="e" cx="6.224" cy="6.224" r="6.224" transform="matrix(0.866, -0.5, 0.5, 0.866, 247.689, 341.052)"/></g></svg>